<?xml version="1.0" standalone="no"?>
<!DOCTYPE svg PUBLIC "-//W3C//DTD SVG 20010904//EN"
 "http://www.w3.org/TR/2001/REC-SVG-20010904/DTD/svg10.dtd">
<svg version="1.0" xmlns="http://www.w3.org/2000/svg"
 width="512.000000pt" height="512.000000pt" viewBox="0 0 512.000000 512.000000"
 preserveAspectRatio="xMidYMid meet">
<metadata>
Created by potrace 1.11, written by Peter Selinger 2001-2013
</metadata>
<g transform="translate(0.000000,512.000000) scale(0.100000,-0.100000)"
fill="#000000" stroke="none">
<path d="M2163 4985 c-59 -25 -63 -47 -63 -318 l0 -245 -57 -6 c-103 -12 -156
-27 -248 -71 -222 -107 -366 -313 -391 -557 l-7 -68 -162 0 -163 0 -7 48 c-4
26 -31 181 -61 346 -47 257 -59 307 -86 358 -35 66 -90 116 -164 150 -46 22
-61 23 -269 23 -218 0 -221 0 -277 -27 -220 -103 -270 -385 -98 -556 175 -176
472 -109 560 126 17 45 21 74 18 135 -3 84 6 94 34 36 9 -18 137 -657 284
-1417 l267 -1384 -34 -26 c-138 -107 -205 -264 -180 -429 21 -139 88 -246 202
-322 123 -82 -22 -76 1740 -76 1722 0 1603 -5 1634 62 31 65 -7 143 -76 157
-18 3 -722 6 -1566 6 -1691 0 -1564 -5 -1641 65 -55 49 -76 107 -70 188 7 87
48 150 123 190 l40 22 1500 5 c1689 6 1543 -2 1667 84 70 48 133 125 167 204
15 37 68 322 177 965 85 502 156 929 157 949 1 42 -25 85 -64 105 -16 9 -83
13 -211 13 l-187 0 -3 375 -3 375 -28 27 -27 28 -318 5 -317 5 -5 195 c-6 215
-10 233 -65 256 -50 21 -1674 20 -1722 -1z m1097 -740 l0 -525 -234 0 -234 0
-7 53 c-14 115 -28 166 -71 254 -72 146 -192 263 -338 327 l-56 25 0 195 0
196 470 0 470 0 0 -525z m470 0 l0 -525 -120 0 -120 0 0 525 0 525 120 0 120
0 0 -525z m-3313 158 c12 -8 29 -30 38 -50 22 -46 13 -94 -26 -133 -53 -53
-149 -37 -185 31 -56 108 70 219 173 152z m4011 -390 l2 -293 -240 0 -240 0 0
295 0 295 238 -2 237 -3 3 -292z m-2195 157 c105 -33 203 -110 265 -209 29
-48 62 -153 62 -202 l0 -39 -465 0 -465 0 0 43 c0 89 58 213 135 290 122 122
304 168 468 117z m2633 -707 c-3 -16 -67 -388 -141 -828 -75 -440 -140 -816
-145 -836 -14 -51 -49 -99 -99 -134 l-43 -30 -1476 0 -1475 0 -183 920 c-101
506 -183 923 -184 928 0 4 844 7 1876 7 l1876 0 -6 -27z"/>
<path d="M1901 3219 l-31 -31 0 -510 0 -510 34 -34 c38 -38 77 -44 126 -19 61
32 61 25 58 576 l-3 501 -33 29 c-47 42 -108 41 -151 -2z"/>
<path d="M2601 3220 c-20 -20 -32 -44 -36 -73 -3 -23 -5 -251 -3 -507 3 -503
2 -490 59 -524 56 -33 130 -9 155 49 21 50 21 969 0 1019 -19 45 -52 66 -102
66 -34 0 -49 -6 -73 -30z"/>
<path d="M3311 3234 c-50 -35 -51 -48 -51 -560 0 -420 2 -480 16 -510 37 -77
143 -85 191 -15 16 24 18 66 21 491 2 256 0 485 -3 509 -9 62 -52 101 -109
101 -23 0 -52 -7 -65 -16z"/>
<path d="M3998 3221 l-33 -29 -3 -489 c-2 -336 0 -500 8 -526 19 -66 99 -97
159 -61 57 34 56 21 59 514 2 250 0 479 -3 507 -9 73 -48 113 -111 113 -34 0
-51 -6 -76 -29z"/>
<path d="M1790 564 c-108 -34 -174 -150 -150 -262 31 -139 180 -218 306 -163
64 29 92 55 120 116 32 67 31 127 -2 193 -30 61 -74 98 -140 118 -57 17 -76
17 -134 -2z"/>
<path d="M3905 571 c-77 -20 -146 -83 -165 -151 -26 -93 -1 -182 69 -241 116
-100 281 -65 352 73 23 46 25 134 3 186 -40 97 -160 159 -259 133z"/>
</g>
</svg>
